<svg width="22" height="22" viewBox="0 0 22 22" fill="none" xmlns="http://www.w3.org/2000/svg">
<path d="M10.2814 15.2082L10.2814 15.2083C10.3405 15.2576 10.4578 15.3431 10.5951 15.4156C10.735 15.4895 10.8803 15.5417 11 15.5417C11.1258 15.5417 11.2764 15.49 11.418 15.4193C11.5572 15.3497 11.6736 15.2689 11.7265 15.2264L11.7288 15.2246L11.7289 15.2246L19.0547 9.63596C19.0548 9.63592 19.0548 9.63588 19.0549 9.63584C19.2568 9.48053 19.5453 9.52187 19.6977 9.72217C19.8512 9.92334 19.8128 10.2108 19.6111 10.3644L10.2814 15.2082ZM10.2814 15.2082L10.2769 15.2048M10.2814 15.2082L10.2769 15.2048M2.38942 10.3649L9.70592 15.9217C9.74499 15.9544 9.90455 16.0844 10.131 16.2079C10.3611 16.3334 10.6712 16.4583 11 16.4583C11.329 16.4583 11.6402 16.3384 11.8708 16.2183C12.0989 16.0995 12.2583 15.975 12.2934 15.9465L19.6111 10.3645L2.38942 10.3649ZM2.38942 10.3649C2.18791 10.2119 2.14822 9.92449 2.30183 9.72301M2.38942 10.3649L2.30183 9.72301M10.2769 15.2048L2.94369 9.63519L10.2769 15.2048ZM2.30634 18.9498C2.39675 19.065 2.53135 19.125 2.667 19.125C2.7659 19.125 2.86575 19.0933 2.95004 19.0268L7.61656 15.3603C7.81548 15.204 7.85031 14.9161 7.6936 14.7167L7.12733 14.738L7.05011 14.6397L7.05005 14.6398L2.38344 18.3064C2.18463 18.4626 2.14963 18.7508 2.30634 18.9498ZM2.30634 18.9498L2.40467 18.8727M2.30634 18.9498C2.30639 18.9499 2.30644 18.95 2.30649 18.95L2.40467 18.8727M2.40467 18.8727C2.47033 18.9563 2.568 19 2.667 19C2.739 19 2.81133 18.977 2.87267 18.9287L2.40467 18.8727ZM2.30183 9.72301C2.45511 9.52051 2.74255 9.48223 2.9436 9.63512L2.30183 9.72301ZM14.3065 14.7167L14.3064 14.7167C14.1497 14.9161 14.1845 15.204 14.3834 15.3603L19.0497 19.0266C19.0498 19.0267 19.05 19.0269 19.0501 19.027C19.1342 19.0935 19.2345 19.125 19.333 19.125C19.4686 19.125 19.6031 19.0651 19.6935 18.95C19.8504 18.751 19.8154 18.4626 19.6166 18.3064L14.9499 14.6397L14.9498 14.6397C14.7497 14.4825 14.4626 14.5184 14.3065 14.7167ZM2.5824 7.051L2.58249 7.05114L2.58783 7.04756L9.9213 2.14214C9.94099 2.13005 10.0773 2.04763 10.2705 1.96549C10.481 1.87601 10.7479 1.79167 11 1.79167C11.2551 1.79167 11.5211 1.8732 11.7284 1.95886C11.831 2.00124 11.9169 2.04364 11.9769 2.07533C12.0068 2.09116 12.0303 2.10425 12.046 2.11325L12.0636 2.12351L12.0669 2.12548L19.4224 7.05484L19.4224 7.05492L19.4266 7.05754C20.0665 7.45017 20.2083 8.13591 20.2083 8.66667V19.3333C20.2083 19.8343 19.8343 20.2083 19.3333 20.2083H2.66667C2.1747 20.2083 1.79167 19.8253 1.79167 19.3333V8.66667C1.79167 7.92656 2.08265 7.34933 2.5824 7.051ZM12.5663 1.3565L12.5663 1.35644L12.5627 1.3542L12.5627 1.3542C12.5319 1.33502 11.7926 0.875 11 0.875C10.5987 0.875 10.2123 0.995599 9.92573 1.11581C9.63822 1.23642 9.4425 1.36036 9.41978 1.37536L9.41917 1.37577L2.09587 6.27462C1.31344 6.74165 0.875 7.61985 0.875 8.66667V19.3333C0.875 20.337 1.66296 21.125 2.66667 21.125H19.3333C20.337 21.125 21.125 20.337 21.125 19.3333V8.66667C21.125 7.61854 20.6982 6.76384 19.9196 6.28446L12.5663 1.3565Z" fill="#2FF3E7" stroke="#2FF3E7" stroke-width="0.25"/>
</svg>
