<svg width="50" height="50" viewBox="0 0 50 50" fill="none" xmlns="http://www.w3.org/2000/svg">
<g clip-path="url(#clip0_1119_213)">
<path d="M5.79483 -0.0953054C6.05275 -0.0970604 6.05275 -0.0970604 6.31588 -0.0988509C6.88741 -0.101823 7.45879 -0.0994802 8.03033 -0.0971136C8.44194 -0.0981307 8.85355 -0.0994665 9.26516 -0.101096C10.3798 -0.104508 11.4944 -0.103193 12.6091 -0.100812C13.7768 -0.0989096 14.9446 -0.100675 16.1123 -0.101851C18.0729 -0.103215 20.0334 -0.101421 21.994 -0.097846C24.2595 -0.0937632 26.5249 -0.0950878 28.7904 -0.0992158C30.7372 -0.102621 32.6839 -0.103099 34.6306 -0.101137C35.7927 -0.0999686 36.9546 -0.0998089 38.1167 -0.102289C39.209 -0.104458 40.3012 -0.102949 41.3935 -0.0986185C41.794 -0.0976281 42.1945 -0.0979095 42.595 -0.0995655C43.1424 -0.10162 43.6895 -0.0990385 44.2369 -0.0953054C44.543 -0.0950227 44.849 -0.0947399 45.1644 -0.0944486C46.6127 0.0691315 47.6865 0.780265 48.75 1.74993C48.75 1.91493 48.75 2.07993 48.75 2.24993C48.915 2.24993 49.08 2.24993 49.25 2.24993C49.851 3.49226 50.0939 4.3919 50.0952 5.79477C50.0964 5.96671 50.0976 6.13866 50.0988 6.31581C50.1017 6.88735 50.0994 7.45873 50.097 8.03027C50.0981 8.44188 50.0994 8.85349 50.101 9.2651C50.1044 10.3798 50.1031 11.4943 50.1007 12.609C50.0988 13.7768 50.1006 14.9445 50.1018 16.1123C50.1031 18.0728 50.1013 20.0333 50.0978 21.9939C50.0937 24.2594 50.095 26.5248 50.0991 28.7903C50.1025 30.7371 50.103 32.6838 50.1011 34.6306C50.0999 35.7926 50.0997 36.9546 50.1022 38.1166C50.1044 39.2089 50.1029 40.3011 50.0985 41.3934C50.0976 41.7939 50.0978 42.1944 50.0995 42.5949C50.1015 43.1423 50.099 43.6895 50.0952 44.2368C50.0949 44.5429 50.0947 44.849 50.0944 45.1643C49.9308 46.6126 49.2197 47.6864 48.25 48.7499C48.085 48.7499 47.92 48.7499 47.75 48.7499C47.75 48.9149 47.75 49.0799 47.75 49.2499C46.5077 49.851 45.608 50.0939 44.2052 50.0952C44.0332 50.0963 43.8613 50.0975 43.6841 50.0987C43.1126 50.1017 42.5412 50.0993 41.9697 50.097C41.558 50.098 41.1464 50.0993 40.7348 50.101C39.6202 50.1044 38.5056 50.1031 37.3909 50.1007C36.2232 50.0988 35.0554 50.1005 33.8877 50.1017C31.9271 50.1031 29.9666 50.1013 28.006 50.0977C25.7405 50.0936 23.4751 50.095 21.2096 50.0991C19.2628 50.1025 17.3161 50.103 15.3693 50.101C14.2073 50.0998 13.0453 50.0997 11.8833 50.1022C10.791 50.1043 9.6988 50.1028 8.6065 50.0985C8.20601 50.0975 7.80551 50.0978 7.40502 50.0994C6.85763 50.1015 6.31045 50.0989 5.76308 50.0952C5.45701 50.0949 5.15095 50.0946 4.83561 50.0943C3.38733 49.9307 2.3135 49.2196 1.24999 48.2499C1.24999 48.0849 1.24999 47.9199 1.24999 47.7499C1.08499 47.7499 0.919993 47.7499 0.749993 47.7499C0.148965 46.5076 -0.0939487 45.608 -0.0952444 44.2051C-0.0964144 44.0331 -0.0975842 43.8612 -0.0987897 43.684C-0.101762 43.1125 -0.0994191 42.5411 -0.0970526 41.9696C-0.0980697 41.558 -0.0994055 41.1464 -0.101035 40.7348C-0.104447 39.6201 -0.103132 38.5055 -0.100751 37.3909C-0.0988487 36.2231 -0.100614 35.0554 -0.10179 33.8876C-0.103154 31.9271 -0.10136 29.9665 -0.097785 28.006C-0.0937021 25.7405 -0.0950269 23.475 -0.0991549 21.2095C-0.10256 19.2628 -0.103038 17.316 -0.101076 15.3693C-0.0999074 14.2073 -0.0997479 13.0453 -0.102228 11.8833C-0.104397 10.791 -0.102888 9.69873 -0.0985575 8.60644C-0.097567 8.20595 -0.0978484 7.80545 -0.0995045 7.40496C-0.101559 6.85757 -0.0989774 6.31039 -0.0952444 5.76302C-0.0949616 5.45695 -0.0946789 5.15089 -0.0943875 4.83555C0.0691925 3.38727 0.780326 2.31344 1.74999 1.24993C1.91499 1.24993 2.07999 1.24993 2.24999 1.24993C2.24999 1.08493 2.24999 0.919932 2.24999 0.749932C3.49232 0.148904 4.39196 -0.0940098 5.79483 -0.0953054ZM4.49999 4.49993C3.90937 5.32618 3.93716 6.10014 3.9365 7.09405C3.93509 7.42213 3.93368 7.75021 3.93223 8.08823C3.9332 8.45138 3.93423 8.81452 3.9353 9.17767C3.93462 9.56042 3.93373 9.94318 3.93264 10.3259C3.93036 11.3652 3.93125 12.4044 3.93283 13.4436C3.9341 14.5309 3.93292 15.6181 3.93214 16.7054C3.93123 18.5313 3.93243 20.3571 3.93481 22.183C3.93753 24.2944 3.93665 26.4058 3.93389 28.5172C3.93163 30.3296 3.9313 32.1419 3.93261 33.9542C3.93339 35.0369 3.9335 36.1195 3.93185 37.2021C3.9304 38.2199 3.9314 39.2377 3.93429 40.2555C3.93495 40.6292 3.93476 41.0029 3.93366 41.3765C3.9323 41.8863 3.93431 42.3961 3.9365 42.9058C3.93669 43.1912 3.93688 43.4766 3.93707 43.7706C3.9991 44.4896 4.1117 44.899 4.49999 45.4999C5.40105 46.192 6.47993 46.0667 7.5642 46.0567C7.87532 46.0568 7.87532 46.0568 8.19272 46.0569C8.8772 46.0566 9.56161 46.0527 10.2461 46.0488C10.7211 46.0478 11.1961 46.0471 11.6711 46.0466C12.9205 46.0447 14.1699 46.0398 15.4194 46.0343C16.9189 46.0282 18.4184 46.026 19.9179 46.023C22.1953 46.0182 24.4726 46.0086 26.75 45.9999C26.75 40.8024 26.75 35.6049 26.75 30.2499C24.8525 30.2499 22.955 30.2499 21 30.2499C21 28.1874 21 26.1249 21 23.9999C22.8975 23.9999 24.795 23.9999 26.75 23.9999C26.7706 23.2007 26.7912 22.4015 26.8125 21.5781C26.9444 18.3979 27.3709 15.5773 29.75 13.2499C32.0166 11.333 34.5081 10.8963 37.4062 10.8281C38.2622 10.8023 39.1181 10.7765 40 10.7499C40 12.8124 40 14.8749 40 16.9999C38.1094 16.9687 38.1094 16.9687 37.5248 16.9549C36.339 16.9455 35.3753 17.1243 34.25 17.4999C34.25 17.6649 34.25 17.8299 34.25 17.9999C33.8787 18.1237 33.8787 18.1237 33.5 18.2499C32.9948 19.5498 32.9362 20.7284 32.9687 22.1093C32.9791 22.7332 32.9894 23.3571 33 23.9999C35.3925 23.9999 37.785 23.9999 40.25 23.9999C39.75 26.4218 39.75 26.4218 39.5918 27.1783C39.5309 27.4782 39.5309 27.4782 39.4687 27.7841C39.4059 28.0885 39.4059 28.0885 39.3418 28.399C39.2185 29.1046 39.2185 29.1046 39.25 30.2499C37.1875 30.2499 35.125 30.2499 33 30.2499C33 35.4474 33 40.6449 33 45.9999C35.8153 46.0154 35.8153 46.0154 38.6875 46.0312C39.2788 46.0357 39.87 46.0403 40.4792 46.045C40.9484 46.0464 41.4176 46.0477 41.8867 46.0488C42.1299 46.0513 42.3731 46.0539 42.6236 46.0565C42.857 46.0566 43.0904 46.0566 43.3308 46.0567C43.6339 46.0584 43.6339 46.0584 43.9432 46.0601C44.5846 45.9908 44.9648 45.8608 45.5 45.4999C46.0601 44.6441 46.0628 43.9135 46.0635 42.9058C46.0649 42.5777 46.0663 42.2497 46.0678 41.9116C46.0668 41.5485 46.0658 41.1853 46.0647 40.8222C46.0654 40.4394 46.0663 40.0567 46.0673 39.6739C46.0696 38.6347 46.0687 37.5955 46.0672 36.5562C46.0659 35.469 46.0671 34.3817 46.0678 33.2945C46.0688 31.4686 46.0676 29.6427 46.0652 27.8168C46.0625 25.7054 46.0633 23.594 46.0661 21.4826C46.0684 19.6703 46.0687 17.858 46.0674 16.0456C46.0666 14.963 46.0665 13.8804 46.0681 12.7977C46.0696 11.7799 46.0686 10.7622 46.0657 9.7444C46.065 9.37071 46.0652 8.99701 46.0663 8.62332C46.0677 8.11356 46.0657 7.6038 46.0635 7.09405C46.0633 6.80867 46.0631 6.52329 46.0629 6.22926C45.9998 5.4979 45.9247 5.0941 45.5 4.49993C44.6737 3.90931 43.8998 3.9371 42.9059 3.93644C42.5778 3.93503 42.2497 3.93362 41.9117 3.93217C41.5485 3.93314 41.1854 3.93416 40.8223 3.93524C40.4395 3.93456 40.0567 3.93367 39.674 3.93258C38.6348 3.9303 37.5955 3.93119 36.5563 3.93277C35.469 3.93404 34.3818 3.93286 33.2945 3.93208C31.4687 3.93117 29.6428 3.93237 27.8169 3.93475C25.7055 3.93747 23.5941 3.93659 21.4827 3.93383C19.6704 3.93157 17.858 3.93124 16.0457 3.93255C14.9631 3.93333 13.8804 3.93344 12.7978 3.93178C11.78 3.93034 10.7623 3.93134 9.74446 3.93423C9.37077 3.93489 8.99707 3.9347 8.62338 3.9336C8.11363 3.93224 7.60386 3.93425 7.09411 3.93644C6.66604 3.93672 6.66604 3.93672 6.22933 3.93701C5.49796 4.00011 5.09416 4.0752 4.49999 4.49993Z" fill="#89FFF8"/>
</g>
<defs>
<clipPath id="clip0_1119_213">
<rect width="50" height="50" fill="white"/>
</clipPath>
</defs>
</svg>
