<svg width="50" height="50" viewBox="0 0 50 50" fill="none" xmlns="http://www.w3.org/2000/svg">
<g clip-path="url(#clip0_1119_206)">
<path d="M10.9796 -0.0367928C11.2333 -0.0385816 11.487 -0.0403704 11.7483 -0.0422134C12.1656 -0.0432218 12.1656 -0.0432218 12.5913 -0.0442505C12.8845 -0.0458933 13.1777 -0.0475361 13.4797 -0.0492287C14.4526 -0.0541669 15.4255 -0.0570802 16.3984 -0.0595703C16.7342 -0.0605826 17.0699 -0.0616119 17.4056 -0.0626578C18.9843 -0.0674214 20.5631 -0.070978 22.1418 -0.0730608C23.9592 -0.0754985 25.7765 -0.082064 27.5938 -0.092186C29.0013 -0.0997537 30.4087 -0.103431 31.8162 -0.104256C32.6554 -0.104841 33.4945 -0.107546 34.3337 -0.113371C35.2725 -0.119481 36.2111 -0.119225 37.1499 -0.117493C37.5611 -0.122296 37.5611 -0.122296 37.9806 -0.127197C41.2564 -0.105269 44.2252 1.20637 46.5781 3.48438C48.1843 5.19716 49.0218 6.75825 49.75 9C49.8325 9.2475 49.915 9.495 50 9.75C50.0245 10.1593 50.0348 10.5695 50.0368 10.9796C50.0395 11.3601 50.0395 11.3601 50.0422 11.7483C50.0429 12.0265 50.0435 12.3047 50.0442 12.5913C50.0459 12.8845 50.0475 13.1777 50.0492 13.4797C50.0542 14.4526 50.0571 15.4255 50.0596 16.3984C50.0606 16.7342 50.0616 17.0699 50.0626 17.4056C50.0674 18.9843 50.071 20.5631 50.0731 22.1418C50.0755 23.9592 50.0821 25.7765 50.0922 27.5938C50.0997 29.0013 50.1034 30.4088 50.1042 31.8163C50.1048 32.6555 50.1075 33.4945 50.1134 34.3337C50.1195 35.2725 50.1192 36.2111 50.1175 37.1499C50.1223 37.5611 50.1223 37.5611 50.1272 37.9806C50.1053 41.2564 48.7936 44.2252 46.5156 46.5781C44.8028 48.1843 43.2417 49.0218 41 49.75C40.7525 49.8325 40.505 49.915 40.25 50C39.8401 50.024 39.4293 50.0337 39.0187 50.0351C38.7647 50.0365 38.5106 50.038 38.2489 50.0394C37.9703 50.0397 37.6917 50.04 37.4047 50.0403C37.1111 50.0415 36.8176 50.0428 36.5151 50.044C35.7092 50.0471 34.9033 50.0489 34.0974 50.05C33.5932 50.0508 33.0889 50.0518 32.5846 50.0529C31.0047 50.0563 29.4248 50.0588 27.8449 50.0597C26.0254 50.0608 24.2059 50.0652 22.3865 50.0725C20.9777 50.0779 19.569 50.0804 18.1602 50.0807C17.3201 50.081 16.48 50.0828 15.6399 50.0869C14.7004 50.0912 13.7611 50.0907 12.8217 50.0891C12.4092 50.0926 12.4092 50.0926 11.9883 50.0961C8.55674 50.0776 5.87812 48.8929 3.40624 46.5C1.80774 44.7938 0.975015 43.2319 0.249992 41C0.167492 40.7525 0.0849924 40.505 -7.62939e-06 40.25C-0.0239871 39.8401 -0.0337363 39.4293 -0.0351181 39.0187C-0.0365456 38.7647 -0.0379732 38.5106 -0.039444 38.2489C-0.0397234 37.9703 -0.0400029 37.6917 -0.0402908 37.4047C-0.0415321 37.1111 -0.0427733 36.8176 -0.0440521 36.5151C-0.0470799 35.7092 -0.0489439 34.9033 -0.0500546 34.0974C-0.0507881 33.5932 -0.0518147 33.0889 -0.0529308 32.5846C-0.0563502 31.0047 -0.0587662 29.4248 -0.0597315 27.8449C-0.0608493 26.0254 -0.0652249 24.2059 -0.0724812 22.3865C-0.0779028 20.9777 -0.0804086 19.569 -0.0807419 18.1602C-0.0810028 17.3201 -0.0828225 16.48 -0.0869465 15.6399C-0.0912274 14.7005 -0.0907375 13.7611 -0.089119 12.8217C-0.0914227 12.5467 -0.0937263 12.2717 -0.0960999 11.9883C-0.0776521 8.55675 1.1071 5.87813 3.49999 3.40625C5.20615 1.80775 6.76806 0.975023 8.99999 0.25C9.73495 0.00501423 10.2135 -0.0330838 10.9796 -0.0367928ZM6.14257 7.24414C4.44274 9.43447 4.21239 11.6142 4.21368 14.2943C4.21284 14.5469 4.212 14.7995 4.21113 15.0598C4.20876 15.8931 4.20827 16.7263 4.208 17.5596C4.2072 18.1406 4.20636 18.7216 4.20548 19.3026C4.20398 20.52 4.20352 21.7374 4.20367 22.9548C4.20369 24.5116 4.20028 26.0684 4.19597 27.6252C4.19319 28.8252 4.19269 30.0252 4.19282 31.2252C4.19252 31.799 4.19142 32.3728 4.18949 32.9466C4.18703 33.7506 4.18776 34.5546 4.18926 35.3587C4.18786 35.5937 4.18645 35.8287 4.18501 36.0709C4.19848 38.921 4.83498 41.2998 6.79687 43.4375C9.05549 45.5534 11.5899 45.7878 14.5497 45.7863C14.7999 45.7872 15.0501 45.788 15.308 45.7889C16.1317 45.7912 16.9555 45.7917 17.7793 45.792C18.3543 45.7928 18.9294 45.7936 19.5044 45.7945C20.7085 45.796 21.9127 45.7965 23.1168 45.7963C24.6565 45.7963 26.1962 45.7997 27.7359 45.804C28.9233 45.8068 30.1106 45.8073 31.2979 45.8072C31.8655 45.8075 32.433 45.8086 33.0005 45.8105C33.7956 45.813 34.5906 45.8122 35.3856 45.8107C35.6179 45.8121 35.8502 45.8135 36.0895 45.815C38.8438 45.8018 41.2393 45.2549 43.2969 43.3438C45.5145 40.9995 45.7878 38.5304 45.7863 35.4503C45.7871 35.2001 45.788 34.9498 45.7889 34.692C45.7912 33.8683 45.7917 33.0445 45.792 32.2207C45.7928 31.6457 45.7936 31.0706 45.7945 30.4956C45.796 29.2915 45.7965 28.0873 45.7963 26.8832C45.7963 25.3435 45.7997 23.8038 45.804 22.2641C45.8068 21.0767 45.8073 19.8894 45.8072 18.7021C45.8075 18.1345 45.8086 17.567 45.8105 16.9995C45.813 16.2044 45.8122 15.4094 45.8107 14.6144C45.8121 14.3821 45.8135 14.1498 45.815 13.9105C45.8014 11.0683 45.1588 8.69344 43.2031 6.5625C41.0106 4.50401 38.5827 4.21231 35.7057 4.21368C35.4531 4.21284 35.2005 4.212 34.9402 4.21114C34.1069 4.20877 33.2737 4.20828 32.4404 4.20801C31.8594 4.2072 31.2784 4.20636 30.6974 4.20549C29.48 4.20399 28.2626 4.20353 27.0452 4.20367C25.4884 4.2037 23.9316 4.20029 22.3748 4.19598C21.1748 4.1932 19.9748 4.19269 18.7748 4.19283C18.201 4.19253 17.6272 4.19143 17.0534 4.18949C16.2494 4.18703 15.4454 4.18777 14.6413 4.18927C14.4063 4.18787 14.1713 4.18646 13.9291 4.18501C10.8684 4.19948 8.28566 4.9615 6.14257 7.24414Z" fill="#89FFF8"/>
<path d="M29.9228 13.1854C30.1133 13.2892 30.3038 13.393 30.5 13.4999C30.7136 13.6088 30.9273 13.7177 31.1474 13.83C34.3444 15.5895 36.1445 18.0967 37.25 21.4999C37.3325 21.7474 37.415 21.9949 37.5 22.2499C37.7251 25.0292 37.8635 27.9973 36.5 30.4999C36.3366 30.8204 36.3366 30.8204 36.1699 31.1474C34.4104 34.3443 31.9032 36.1444 28.5 37.2499C28.2525 37.3324 28.005 37.4149 27.75 37.4999C26.8709 37.5642 25.9905 37.5578 25.1094 37.5624C24.8714 37.5675 24.6334 37.5727 24.3882 37.578C21.0021 37.5965 18.3361 36.3521 15.9062 33.9999C14.3077 32.2937 13.475 30.7318 12.75 28.4999C12.6262 28.1286 12.6262 28.1286 12.5 27.7499C12.4356 26.8708 12.4421 25.9904 12.4375 25.1093C12.4323 24.8713 12.4272 24.6333 12.4219 24.3881C12.4034 21.002 13.6477 18.336 16 15.9061C17.7061 14.3076 19.2681 13.4749 21.5 12.7499C23.9125 11.9457 27.6267 12.1347 29.9228 13.1854ZM19.0625 19.2968C17.4112 21.0748 16.6862 23.0836 16.75 25.4999C17.0289 28.1117 18.2175 30.107 20.25 31.7499C22.2298 33.0763 24.3234 33.5219 26.6719 33.078C29.0387 32.4337 30.7679 31.2157 32.1445 29.161C33.2635 27.1386 33.5375 25.0153 32.9287 22.7792C32.1341 20.4258 30.7401 18.729 28.5469 17.5155C25.1999 15.996 21.7104 16.8667 19.0625 19.2968Z" fill="#89FFF8"/>
<path d="M40.4687 8.54682C41.2435 9.20761 41.6818 9.74469 41.8213 10.7783C41.8695 12.0248 41.744 12.9583 41 13.9999C40.0253 14.68 39.1561 14.8869 37.9893 14.8378C36.8998 14.6421 36.2187 14.0124 35.5312 13.1874C35.1581 12.2754 35.0803 11.4618 35.25 10.4999C36.3495 8.34167 38.2232 7.61933 40.4687 8.54682Z" fill="#89FFF8"/>
</g>
<defs>
<clipPath id="clip0_1119_206">
<rect width="50" height="50" fill="white"/>
</clipPath>
</defs>
</svg>
