<svg width="50" height="50" viewBox="0 0 50 50" fill="none" xmlns="http://www.w3.org/2000/svg">
<g clip-path="url(#clip0_1119_215)">
<path d="M5.79483 -0.0953054C6.05275 -0.0970604 6.05275 -0.0970604 6.31588 -0.0988509C6.88741 -0.101823 7.45879 -0.0994802 8.03033 -0.0971136C8.44194 -0.0981307 8.85355 -0.0994665 9.26516 -0.101096C10.3798 -0.104508 11.4944 -0.103193 12.6091 -0.100812C13.7768 -0.0989096 14.9446 -0.100675 16.1123 -0.101851C18.0729 -0.103215 20.0334 -0.101421 21.994 -0.097846C24.2595 -0.0937632 26.5249 -0.0950878 28.7904 -0.0992158C30.7372 -0.102621 32.6839 -0.103099 34.6306 -0.101137C35.7927 -0.0999686 36.9546 -0.0998089 38.1167 -0.102289C39.209 -0.104458 40.3012 -0.102949 41.3935 -0.0986185C41.794 -0.0976281 42.1945 -0.0979095 42.595 -0.0995655C43.1424 -0.10162 43.6895 -0.0990385 44.2369 -0.0953054C44.543 -0.0950227 44.849 -0.0947399 45.1644 -0.0944486C46.6127 0.0691315 47.6865 0.780265 48.75 1.74993C48.75 1.91493 48.75 2.07993 48.75 2.24993C48.915 2.24993 49.08 2.24993 49.25 2.24993C49.851 3.49226 50.0939 4.3919 50.0952 5.79477C50.0964 5.96671 50.0976 6.13866 50.0988 6.31581C50.1017 6.88735 50.0994 7.45873 50.097 8.03027C50.0981 8.44188 50.0994 8.85349 50.101 9.2651C50.1044 10.3798 50.1031 11.4943 50.1007 12.609C50.0988 13.7768 50.1006 14.9445 50.1018 16.1123C50.1031 18.0728 50.1013 20.0333 50.0978 21.9939C50.0937 24.2594 50.095 26.5248 50.0991 28.7903C50.1025 30.7371 50.103 32.6838 50.1011 34.6306C50.0999 35.7926 50.0997 36.9546 50.1022 38.1166C50.1044 39.2089 50.1029 40.3011 50.0985 41.3934C50.0976 41.7939 50.0978 42.1944 50.0995 42.5949C50.1015 43.1423 50.099 43.6895 50.0952 44.2368C50.0949 44.5429 50.0947 44.849 50.0944 45.1643C49.9308 46.6126 49.2197 47.6864 48.25 48.7499C48.085 48.7499 47.92 48.7499 47.75 48.7499C47.75 48.9149 47.75 49.0799 47.75 49.2499C46.5077 49.851 45.608 50.0939 44.2052 50.0952C44.0332 50.0963 43.8613 50.0975 43.6841 50.0987C43.1126 50.1017 42.5412 50.0993 41.9697 50.097C41.558 50.098 41.1464 50.0993 40.7348 50.101C39.6202 50.1044 38.5056 50.1031 37.3909 50.1007C36.2232 50.0988 35.0554 50.1005 33.8877 50.1017C31.9271 50.1031 29.9666 50.1013 28.006 50.0977C25.7405 50.0936 23.4751 50.095 21.2096 50.0991C19.2628 50.1025 17.3161 50.103 15.3693 50.101C14.2073 50.0998 13.0453 50.0997 11.8833 50.1022C10.791 50.1043 9.6988 50.1028 8.6065 50.0985C8.20601 50.0975 7.80551 50.0978 7.40502 50.0994C6.85763 50.1015 6.31045 50.0989 5.76308 50.0952C5.45701 50.0949 5.15095 50.0946 4.83561 50.0943C3.38733 49.9307 2.3135 49.2196 1.24999 48.2499C1.24999 48.0849 1.24999 47.9199 1.24999 47.7499C1.08499 47.7499 0.919993 47.7499 0.749993 47.7499C0.148965 46.5076 -0.0939487 45.608 -0.0952444 44.2051C-0.0964144 44.0331 -0.0975842 43.8612 -0.0987897 43.684C-0.101762 43.1125 -0.0994191 42.5411 -0.0970526 41.9696C-0.0980697 41.558 -0.0994055 41.1464 -0.101035 40.7348C-0.104447 39.6201 -0.103132 38.5055 -0.100751 37.3909C-0.0988487 36.2231 -0.100614 35.0554 -0.10179 33.8876C-0.103154 31.9271 -0.10136 29.9665 -0.097785 28.006C-0.0937021 25.7405 -0.0950269 23.475 -0.0991549 21.2095C-0.10256 19.2628 -0.103038 17.316 -0.101076 15.3693C-0.0999074 14.2073 -0.0997479 13.0453 -0.102228 11.8833C-0.104397 10.791 -0.102888 9.69873 -0.0985575 8.60644C-0.097567 8.20595 -0.0978484 7.80545 -0.0995045 7.40496C-0.101559 6.85757 -0.0989774 6.31039 -0.0952444 5.76302C-0.0949616 5.45695 -0.0946789 5.15089 -0.0943875 4.83555C0.0691925 3.38727 0.780326 2.31344 1.74999 1.24993C1.91499 1.24993 2.07999 1.24993 2.24999 1.24993C2.24999 1.08493 2.24999 0.919932 2.24999 0.749932C3.49232 0.148904 4.39196 -0.0940098 5.79483 -0.0953054ZM4.49999 4.49993C3.90937 5.32618 3.93716 6.10014 3.9365 7.09405C3.93509 7.42213 3.93368 7.75021 3.93223 8.08823C3.9332 8.45138 3.93423 8.81452 3.9353 9.17767C3.93462 9.56042 3.93373 9.94318 3.93264 10.3259C3.93036 11.3652 3.93125 12.4044 3.93283 13.4436C3.9341 14.5309 3.93292 15.6181 3.93214 16.7054C3.93123 18.5313 3.93243 20.3571 3.93481 22.183C3.93753 24.2944 3.93665 26.4058 3.93389 28.5172C3.93163 30.3296 3.9313 32.1419 3.93261 33.9542C3.93339 35.0369 3.9335 36.1195 3.93185 37.2021C3.9304 38.2199 3.9314 39.2377 3.93429 40.2555C3.93495 40.6292 3.93476 41.0029 3.93366 41.3765C3.9323 41.8863 3.93431 42.3961 3.9365 42.9058C3.93669 43.1912 3.93688 43.4766 3.93707 43.7706C4.00017 44.502 4.07526 44.9058 4.49999 45.4999C5.32624 46.0906 6.1002 46.0628 7.09411 46.0634C7.58623 46.0655 7.58623 46.0655 8.0883 46.0677C8.45144 46.0667 8.81458 46.0657 9.17773 46.0646C9.56048 46.0653 9.94324 46.0662 10.326 46.0673C11.3652 46.0696 12.4045 46.0687 13.4437 46.0671C14.5309 46.0658 15.6182 46.067 16.7054 46.0678C18.5313 46.0687 20.3572 46.0675 22.1831 46.0651C24.2945 46.0624 26.4059 46.0633 28.5173 46.066C30.3296 46.0683 32.1419 46.0686 33.9543 46.0673C35.0369 46.0665 36.1196 46.0664 37.2022 46.0681C38.22 46.0695 39.2377 46.0685 40.2555 46.0656C40.6292 46.065 41.0029 46.0652 41.3766 46.0663C41.8864 46.0676 42.3961 46.0656 42.9059 46.0634C43.1913 46.0632 43.4766 46.063 43.7707 46.0629C44.502 45.9998 44.9058 45.9247 45.5 45.4999C46.0906 44.6737 46.0628 43.8997 46.0635 42.9058C46.0649 42.5777 46.0663 42.2497 46.0678 41.9116C46.0668 41.5485 46.0658 41.1853 46.0647 40.8222C46.0654 40.4394 46.0663 40.0567 46.0673 39.6739C46.0696 38.6347 46.0687 37.5955 46.0672 36.5562C46.0659 35.469 46.0671 34.3817 46.0678 33.2945C46.0688 31.4686 46.0676 29.6427 46.0652 27.8168C46.0625 25.7054 46.0633 23.594 46.0661 21.4826C46.0684 19.6703 46.0687 17.858 46.0674 16.0456C46.0666 14.963 46.0665 13.8804 46.0681 12.7977C46.0696 11.7799 46.0686 10.7622 46.0657 9.7444C46.065 9.37071 46.0652 8.99701 46.0663 8.62332C46.0677 8.11356 46.0657 7.6038 46.0635 7.09405C46.0633 6.80867 46.0631 6.52329 46.0629 6.22926C45.9998 5.4979 45.9247 5.0941 45.5 4.49993C44.6737 3.90931 43.8998 3.9371 42.9059 3.93644C42.5778 3.93503 42.2497 3.93362 41.9117 3.93217C41.5485 3.93314 41.1854 3.93416 40.8223 3.93524C40.4395 3.93456 40.0567 3.93367 39.674 3.93258C38.6348 3.9303 37.5955 3.93119 36.5563 3.93277C35.469 3.93404 34.3818 3.93286 33.2945 3.93208C31.4687 3.93117 29.6428 3.93237 27.8169 3.93475C25.7055 3.93747 23.5941 3.93659 21.4827 3.93383C19.6704 3.93157 17.858 3.93124 16.0457 3.93255C14.9631 3.93333 13.8804 3.93344 12.7978 3.93178C11.78 3.93034 10.7623 3.93134 9.74446 3.93423C9.37077 3.93489 8.99707 3.9347 8.62338 3.9336C8.11363 3.93224 7.60386 3.93425 7.09411 3.93644C6.66604 3.93672 6.66604 3.93672 6.22933 3.93701C5.49796 4.00011 5.09416 4.0752 4.49999 4.49993Z" fill="#89FFF8"/>
<path d="M33.2188 18.6405C33.4159 18.6424 33.6131 18.6443 33.8162 18.6463C36.0074 18.7081 37.7676 19.3069 39.3838 20.828C41.4497 23.2079 41.3224 26.4716 41.2988 29.4394C41.2979 29.7889 41.2972 30.1385 41.2967 30.488C41.2948 31.3996 41.2899 32.3111 41.2843 33.2227C41.2792 34.1562 41.2769 35.0898 41.2744 36.0233C41.2693 37.8489 41.2596 39.6743 41.25 41.4999C38.94 41.4999 36.63 41.4999 34.25 41.4999C34.236 40.0415 34.236 40.0415 34.2217 38.5536C34.2101 37.6095 34.1973 36.6655 34.1844 35.7214C34.1761 35.0665 34.1691 34.4115 34.1634 33.7566C34.155 32.8138 34.1419 31.8713 34.1279 30.9286C34.1263 30.6369 34.1247 30.3452 34.1231 30.0446C34.0922 28.3245 34.0534 26.831 32.7969 25.5312C31.5809 24.9058 30.5068 24.9346 29.2236 25.3026C28.2275 25.7175 27.6656 26.3894 27.2233 27.3526C26.8969 28.6641 26.9103 29.9478 26.8965 31.2948C26.8916 31.5868 26.8868 31.8788 26.8818 32.1796C26.8669 33.1093 26.8553 34.0389 26.8438 34.9687C26.8342 35.6002 26.8244 36.2317 26.8145 36.8632C26.7901 38.4087 26.7702 39.9543 26.75 41.4999C24.44 41.4999 22.13 41.4999 19.75 41.4999C19.75 34.1574 19.75 26.8149 19.75 19.2499C22.06 19.2499 24.37 19.2499 26.75 19.2499C26.8325 19.8274 26.915 20.4049 27 20.9999C27.1212 20.9003 27.2423 20.8007 27.3672 20.6982C27.5348 20.5657 27.7023 20.4332 27.875 20.2968C28.0374 20.1663 28.1998 20.0357 28.3672 19.9013C29.9195 18.9167 31.3977 18.6159 33.2188 18.6405Z" fill="#89FFF8"/>
<path d="M8.75 19.25C11.06 19.25 13.37 19.25 15.75 19.25C15.75 26.5925 15.75 33.935 15.75 41.5C13.44 41.5 11.13 41.5 8.75 41.5C8.75 34.1575 8.75 26.815 8.75 19.25Z" fill="#89FFF8"/>
<path d="M13.7939 8.19239C15.043 8.76554 15.6561 9.34841 16.2969 10.5625C16.6655 11.81 16.6451 12.839 16.2188 14.0469C15.5713 15.018 14.8067 15.7216 13.75 16.25C12.1953 16.3821 10.8166 16.4312 9.5 15.5C8.2987 14.2013 8.15774 13.1476 8.18262 11.4307C8.2999 10.246 8.79549 9.6281 9.69141 8.88282C11.0448 7.9237 12.2104 7.63233 13.7939 8.19239Z" fill="#89FFF8"/>
</g>
<defs>
<clipPath id="clip0_1119_215">
<rect width="50" height="50" fill="white"/>
</clipPath>
</defs>
</svg>
