<svg width="50" height="50" viewBox="0 0 50 50" fill="none" xmlns="http://www.w3.org/2000/svg">
<g clip-path="url(#clip0_1119_210)">
<path d="M23.7874 5.9675C24.7973 5.96892 25.8073 5.96807 26.8173 5.96664C44.6387 5.94515 44.6387 5.94515 47.5322 8.76962C50.1652 11.9138 50.0793 16.2023 50.0752 20.1056C50.0762 20.4943 50.0773 20.883 50.0784 21.2718C50.0803 22.0819 50.0802 22.8921 50.0789 23.7022C50.0775 24.7278 50.0817 25.7532 50.0875 26.7787C50.0912 27.5805 50.0914 28.3823 50.0906 29.1841C50.0908 29.5616 50.092 29.9391 50.0946 30.3165C50.1066 32.3378 50.0081 34.2918 49.6691 36.2874C49.6404 36.4601 49.6118 36.6327 49.5822 36.8105C49.2871 38.3843 48.6322 39.6782 47.75 41.0001C47.585 41.0001 47.42 41.0001 47.25 41.0001C47.1675 41.2476 47.085 41.4951 47 41.7501C44.4251 43.9637 40.5647 43.7682 37.3643 43.8888C37.0856 43.8993 36.8069 43.9098 36.5198 43.9206C33.1809 44.0346 29.842 44.038 26.5015 44.0327C25.6042 44.0313 24.707 44.0321 23.8097 44.0335C20.2073 44.0384 16.6085 44.01 13.0078 43.8917C12.7158 43.8824 12.4239 43.8731 12.1231 43.8635C4.81216 43.5932 4.81216 43.5932 2.29395 41.0372C-0.217036 37.9851 -0.0791739 33.6364 -0.0751934 29.8858C-0.0761689 29.4965 -0.0772533 29.1072 -0.0784397 28.7178C-0.080291 27.9066 -0.0802429 27.0954 -0.0789165 26.2842C-0.0774706 25.2564 -0.0817017 24.2287 -0.0875034 23.201C-0.0912276 22.3981 -0.0914001 21.5952 -0.0906257 20.7923C-0.0907521 20.4139 -0.0920226 20.0356 -0.0945778 19.6572C-0.116013 16.04 -0.0446236 11.7407 2.51953 8.93075C7.45096 4.29286 17.4183 5.95844 23.7874 5.9675ZM12.2344 9.34579C11.8782 9.35718 11.8782 9.35718 11.5149 9.3688C8.09795 9.44524 8.09795 9.44524 5.09863 10.8507C3.11192 13.1268 3.17087 16.7061 3.09375 19.547C3.08445 19.8462 3.07514 20.1454 3.06555 20.4537C3.0406 21.3025 3.01918 22.1512 3 23.0001C2.99549 23.1953 2.99098 23.3904 2.98633 23.5915C2.9641 24.7284 2.97368 25.8635 3 27.0001C3.0058 27.2555 3.0116 27.5109 3.01758 27.774C3.03969 28.662 3.06604 29.5498 3.09375 30.4376C3.10145 30.7189 3.10914 31.0003 3.11707 31.2901C3.20658 35.6447 3.20658 35.6447 5.30664 39.2784C7.42911 40.7223 10.6539 40.5644 13.1309 40.6436C13.4337 40.6538 13.7365 40.664 14.0485 40.6744C17.4343 40.778 20.8198 40.7882 24.2069 40.7827C25.0896 40.7813 25.9723 40.7821 26.855 40.7835C30.2999 40.7883 33.7432 40.7669 37.1865 40.6544C37.4495 40.6468 37.7125 40.6392 37.9835 40.6314C41.9229 40.5614 41.9229 40.5614 45.25 38.7501C47.4494 35.5653 46.9346 30.6754 47 27.0001C47.0042 26.8064 47.0083 26.6126 47.0126 26.4131C47.0351 25.2747 47.0244 24.1383 47 23.0001C46.9955 22.7487 46.9911 22.4973 46.9865 22.2382C47.1786 16.202 47.1786 16.202 44.915 10.8624C41.0621 7.49897 31.1387 9.21053 26.2178 9.2175C25.2036 9.21892 24.1894 9.21807 23.1751 9.21664C19.5274 9.21223 15.8802 9.21566 12.2344 9.34579Z" fill="#89FFF8"/>
<path d="M22.515 16.7277C23.0762 17.0236 23.6245 17.3354 24.1719 17.6562C24.3696 17.7691 24.5674 17.8819 24.7711 17.9982C25.3492 18.3292 25.9249 18.6638 26.5 18.9999C26.7849 19.1656 27.0698 19.3312 27.3633 19.5019C27.8469 19.7842 28.33 20.0674 28.8125 20.3515C29.7421 20.8902 30.6854 21.4019 31.6319 21.9101C33.4183 22.8922 33.4183 22.8922 33.8438 23.4531C34.0687 24.2403 33.9896 24.7173 33.75 25.4999C32.8747 26.5094 31.9185 27.1383 30.7422 27.7402C30.5741 27.8286 30.406 27.917 30.2328 28.0081C29.698 28.2888 29.1616 28.5663 28.625 28.8437C28.0979 29.119 27.5711 29.395 27.0444 29.6711C26.6981 29.8521 26.3513 30.0321 26.004 30.2112C25.1846 30.6348 24.3751 31.067 23.5791 31.5334C23.2978 31.6957 23.0165 31.8581 22.7266 32.0253C22.3604 32.2441 22.3604 32.2441 21.9868 32.4674C21.0274 32.8353 20.4823 32.7886 19.5 32.4999C18.7721 31.9536 18.5391 31.5236 18.4106 30.6237C18.3669 29.8201 18.3615 29.0235 18.3672 28.2187C18.3663 27.9238 18.3653 27.6289 18.3643 27.325C18.3636 26.7022 18.3655 26.0793 18.3697 25.4565C18.375 24.5034 18.3697 23.5507 18.3633 22.5976C18.364 21.9921 18.3653 21.3867 18.3672 20.7812C18.3652 20.4963 18.3632 20.2113 18.3611 19.9178C18.3844 17.9501 18.3844 17.9501 18.9615 16.9511C20.0782 16.0156 21.2203 16.1551 22.515 16.7277ZM21.75 20.4999C21.75 23.1399 21.75 25.7799 21.75 28.4999C23.0407 28.077 23.0407 28.077 24.2012 27.4941C24.3678 27.3987 24.5344 27.3033 24.7061 27.205C24.8753 27.1064 25.0445 27.0078 25.2188 26.9062C26.543 26.1407 27.8761 25.4231 29.25 24.7499C29.25 24.5849 29.25 24.4199 29.25 24.2499C28.263 23.7146 27.2752 23.1805 26.2868 22.6478C25.9505 22.4663 25.6144 22.2844 25.2785 22.1021C24.7962 21.8405 24.3132 21.5803 23.8301 21.3203C23.6796 21.2382 23.529 21.1562 23.3739 21.0717C22.6054 20.6358 22.6054 20.6358 21.75 20.4999Z" fill="#89FFF8"/>
</g>
<defs>
<clipPath id="clip0_1119_210">
<rect width="50" height="50" fill="white"/>
</clipPath>
</defs>
</svg>
